<?xml version="1.0" standalone="no"?>
<!DOCTYPE svg PUBLIC "-//W3C//DTD SVG 20010904//EN"
 "http://www.w3.org/TR/2001/REC-SVG-20010904/DTD/svg10.dtd">
<svg version="1.0" xmlns="http://www.w3.org/2000/svg"
 width="1586.000000pt" height="1586.000000pt" viewBox="0 0 1586.000000 1586.000000"
 preserveAspectRatio="xMidYMid meet">
<metadata>
Created by potrace 1.11, written by Peter Selinger 2001-2013
</metadata>
<g transform="translate(0.000000,1586.000000) scale(0.100000,-0.100000)"
fill="#000000" stroke="none">
<path d="M5815 15603 c-251 -43 -429 -130 -587 -286 -113 -112 -197 -240 -257
-395 -30 -77 -78 -265 -91 -357 -6 -44 -14 -93 -17 -110 -3 -16 -8 -1564 -9
-3440 -2 -1875 -3 -3427 -4 -3447 l0 -38 -730 0 -730 0 -1 1768 c0 972 -2
1782 -4 1800 -1 19 -6 68 -10 110 -16 178 -81 415 -153 557 -154 306 -473 529
-831 582 -63 9 -333 10 -404 1 -63 -8 -200 -42 -244 -60 -349 -141 -561 -384
-667 -765 -13 -48 -27 -104 -30 -123 -3 -19 -8 -48 -11 -65 -11 -68 -15 -94
-22 -170 -4 -44 -8 -2256 -8 -4915 0 -4879 0 -4881 31 -5059 74 -415 265 -712
572 -885 86 -48 251 -104 359 -120 115 -18 384 -14 478 7 240 54 414 147 576
307 218 217 338 524 364 935 2 33 4 981 4 2108 l1 2047 730 0 c688 0 730 -1
730 -17 1 -10 2 -220 4 -468 4 -438 5 -479 27 -615 83 -521 330 -850 749 -998
47 -16 88 -30 93 -30 4 0 38 -6 75 -13 44 -9 131 -14 252 -13 166 1 195 4 285
28 55 14 109 28 120 31 63 15 257 124 330 185 59 49 154 149 195 204 112 153
204 395 235 621 3 22 7 54 9 70 13 95 18 253 18 612 l0 403 652 0 651 0 1
-2038 c1 -1755 5 -2237 19 -2262 2 -3 6 -30 10 -60 26 -211 119 -460 230 -616
138 -193 366 -348 595 -404 123 -30 138 -32 305 -35 171 -3 290 12 425 56 160
51 334 162 455 291 199 211 300 470 341 868 4 41 9 1733 10 3760 1 2027 2
3688 3 3693 0 4 327 7 726 7 399 0 726 -3 726 -7 1 -5 2 -930 4 -2058 1 -1127
5 -2081 9 -2120 22 -214 45 -332 93 -474 63 -186 148 -325 275 -451 205 -203
447 -299 773 -306 363 -8 639 97 871 330 193 194 298 431 348 781 18 123 20
652 20 4995 0 4169 -3 4954 -19 4980 -2 3 -6 24 -9 46 -9 74 -36 186 -68 282
-132 400 -427 660 -848 748 -117 25 -402 25 -516 1 -402 -85 -693 -342 -823
-727 -60 -176 -76 -256 -97 -475 -4 -44 -8 -873 -8 -1842 l-1 -1763 -727 0
c-401 0 -729 3 -729 8 -1 4 -3 63 -4 132 -4 180 -22 380 -40 440 -2 8 -7 29
-10 45 -10 62 -15 77 -44 164 -85 248 -201 415 -389 556 -214 160 -445 227
-762 220 -327 -7 -570 -106 -783 -322 -103 -104 -163 -198 -240 -373 -71 -162
-118 -450 -121 -750 l-1 -115 -651 -3 -652 -2 0 1722 c0 1493 -3 1895 -17
1968 -1 8 -6 40 -10 70 -10 75 -41 211 -67 290 -136 417 -462 695 -899 765
-103 16 -336 16 -434 -2z m2730 -7413 l0 -660 -651 0 -652 0 0 660 0 660 652
0 651 0 0 -660z"/>
</g>
</svg>
